# xmcd CD database file
#
# Track frame offsets:
#	150
#	12323
#	33639
#	49692
#	65562
#	82093
#	95448
#	112085
#	126671
#	142581
#	161379
#	177004
#	197118
#	213272
#	229419
#	245148
#	272288
#	291093
#
# Disc length: 4090 seconds
#
# Revision: 1
# Processed by: cddbd v1.5.2PL0 Copyright (c) Steve Scherf et al.
# Submitted via: CDex 1.75
#
DISCID=070ff812
DTITLE=Cure - Greatest Hits
DYEAR=2001
DGENRE=Blues
TTITLE0=Boys Don't Cry
TTITLE1=A Forest
TTITLE2=Let's Go To Bed
TTITLE3=The Walk
TTITLE4=The Lovecats
TTITLE5=In Between Days
TTITLE6=Close To Me
TTITLE7=Why Can't I Be You?
TTITLE8=Just Like Heaven
TTITLE9=Lullaby
TTITLE10=Lovesong
TTITLE11=Never Enough
TTITLE12=High
TTITLE13=Friday I'm In Love
TTITLE14=Mint Car
TTITLE15=Wrong Number
TTITLE16=Cut Here
TTITLE17=Just Say Yes
EXTD=YEAR: 2001
EXTT0=
EXTT1=
EXTT2=
EXTT3=
EXTT4=
EXTT5=
EXTT6=
EXTT7=
EXTT8=
EXTT9=
EXTT10=
EXTT11=
EXTT12=
EXTT13=
EXTT14=
EXTT15=
EXTT16=
EXTT17=
PLAYORDER=
